<svg width="21" height="21" viewBox="0 0 21 21" fill="none" xmlns="http://www.w3.org/2000/svg">
<path d="M2.3771 10.0414C2.39975 5.63149 6.00742 2.11565 10.4165 2.20669C14.8255 2.29773 18.3963 5.96179 18.3737 10.3717C18.351 14.7817 14.7434 18.2975 10.3343 18.2065C5.92525 18.1154 2.35445 14.4514 2.3771 10.0414ZM0.377529 10.0001C0.34918 15.5201 4.80522 20.0925 10.324 20.2064C15.8429 20.3204 20.3449 15.9329 20.3733 10.413C20.4016 4.89309 15.9456 0.320669 10.4268 0.206715C4.90793 0.0927619 0.405878 4.48022 0.377529 10.0001ZM10.3805 9.20659L6.38139 9.12402L6.37111 11.124L10.3703 11.2066L10.3549 14.2065L14.3745 10.2892L10.3959 6.20663L10.3805 9.20659Z" fill="#C91053"/>
</svg>
