<svg width="25" height="24" viewBox="0 0 25 24" fill="none" xmlns="http://www.w3.org/2000/svg">
<g clip-path="url(#clip0_417_575)">
<path d="M20.1898 15.38C18.9588 15.38 17.7678 15.18 16.6568 14.82C16.3065 14.7 15.9162 14.79 15.646 15.06L14.0746 17.03C11.2422 15.68 8.58992 13.13 7.17871 10.2L9.13038 8.54C9.40061 8.26 9.48068 7.87 9.37059 7.52C9.00027 6.41 8.81011 5.22 8.81011 3.99C8.81011 3.45 8.35972 3 7.81926 3H4.3563C3.81584 3 3.16528 3.24 3.16528 3.99C3.16528 13.28 10.9019 21 20.1898 21C20.9004 21 21.1807 20.37 21.1807 19.82V16.37C21.1807 15.83 20.7303 15.38 20.1898 15.38Z" fill="white"/>
</g>
<defs>
<clipPath id="clip0_417_575">
<rect width="24.0205" height="24" fill="white" transform="translate(0.162598)"/>
</clipPath>
</defs>
</svg>
