<svg width="20" height="20" viewBox="0 0 20 20" fill="none" xmlns="http://www.w3.org/2000/svg">
<g clip-path="url(#clip0_417_498)">
<path d="M17 2.50163H16.1667V0.834961H14.5V2.50163H6.16667V0.834961H4.5V2.50163H3.66667C2.75 2.50163 2 3.25163 2 4.16829V17.5016C2 18.4183 2.75 19.1683 3.66667 19.1683H17C17.9167 19.1683 18.6667 18.4183 18.6667 17.5016V4.16829C18.6667 3.25163 17.9167 2.50163 17 2.50163ZM17 17.5016H3.66667V6.66829H17V17.5016Z" fill="white"/>
<g clip-path="url(#clip1_417_498)">
<mask id="path-2-inside-1_417_498" fill="white">
<path d="M8.625 14.1265L6 11.5015L5.125 12.3765L8.625 15.8765L16.125 8.37646L15.25 7.50146L8.625 14.1265Z"/>
</mask>
<path d="M8.625 14.1265L6 11.5015L5.125 12.3765L8.625 15.8765L16.125 8.37646L15.25 7.50146L8.625 14.1265Z" fill="white"/>
<path d="M8.625 14.1265L-4.81003 27.5615L8.625 40.9965L22.06 27.5615L8.625 14.1265ZM6 11.5015L19.435 -1.93356L6 -15.3686L-7.43503 -1.93357L6 11.5015ZM5.125 12.3765L-8.31003 -1.05857L-21.7451 12.3765L-8.31003 25.8115L5.125 12.3765ZM8.625 15.8765L-4.81003 29.3115L8.625 42.7465L22.06 29.3115L8.625 15.8765ZM16.125 8.37646L29.56 21.8115L42.9951 8.37647L29.56 -5.05856L16.125 8.37646ZM15.25 7.50146L28.685 -5.93356L15.25 -19.3686L1.81497 -5.93356L15.25 7.50146ZM22.06 0.691436L19.435 -1.93356L-7.43503 24.9365L-4.81003 27.5615L22.06 0.691436ZM-7.43503 -1.93357L-8.31003 -1.05857L18.56 25.8115L19.435 24.9365L-7.43503 -1.93357ZM-8.31003 25.8115L-4.81003 29.3115L22.06 2.44143L18.56 -1.05856L-8.31003 25.8115ZM22.06 29.3115L29.56 21.8115L2.68997 -5.05856L-4.81003 2.44143L22.06 29.3115ZM29.56 -5.05856L28.685 -5.93356L1.81497 20.9365L2.68997 21.8115L29.56 -5.05856ZM1.81497 -5.93356L-4.81003 0.691435L22.06 27.5615L28.685 20.9365L1.81497 -5.93356Z" fill="white" mask="url(#path-2-inside-1_417_498)"/>
</g>
</g>
<defs>
<clipPath id="clip0_417_498">
<rect width="20" height="20" fill="white" transform="translate(0 0.00146484)"/>
</clipPath>
<clipPath id="clip1_417_498">
<rect width="15" height="15" fill="white" transform="translate(3 4.00146)"/>
</clipPath>
</defs>
</svg>
