<svg width="20" height="20" viewBox="0 0 20 20" fill="none" xmlns="http://www.w3.org/2000/svg">
<g clip-path="url(#clip0_1256_369)">
<path d="M17 2.50016H16.1667V0.833496H14.5V2.50016H6.16667V0.833496H4.5V2.50016H3.66667C2.75 2.50016 2 3.25016 2 4.16683V17.5002C2 18.4168 2.75 19.1668 3.66667 19.1668H17C17.9167 19.1668 18.6667 18.4168 18.6667 17.5002V4.16683C18.6667 3.25016 17.9167 2.50016 17 2.50016ZM17 17.5002H3.66667V6.66683H17V17.5002Z" fill="#C91053"/>
<g clip-path="url(#clip1_1256_369)">
<mask id="path-3-inside-1_1256_369" fill="white">
<path d="M8.625 14.125L6 11.5L5.125 12.375L8.625 15.875L16.125 8.375L15.25 7.5L8.625 14.125Z"/>
</mask>
<path d="M8.625 14.125L6 11.5L5.125 12.375L8.625 15.875L16.125 8.375L15.25 7.5L8.625 14.125Z" fill="#C91053"/>
<path d="M8.625 14.125L-4.81003 27.56L8.625 40.9951L22.06 27.56L8.625 14.125ZM6 11.5L19.435 -1.93503L6 -15.3701L-7.43503 -1.93503L6 11.5ZM5.125 12.375L-8.31003 -1.06003L-21.7451 12.375L-8.31003 25.81L5.125 12.375ZM8.625 15.875L-4.81003 29.31L8.625 42.7451L22.06 29.31L8.625 15.875ZM16.125 8.375L29.56 21.81L42.9951 8.375L29.56 -5.06003L16.125 8.375ZM15.25 7.5L28.685 -5.93503L15.25 -19.3701L1.81497 -5.93503L15.25 7.5ZM22.06 0.689971L19.435 -1.93503L-7.43503 24.935L-4.81003 27.56L22.06 0.689971ZM-7.43503 -1.93503L-8.31003 -1.06003L18.56 25.81L19.435 24.935L-7.43503 -1.93503ZM-8.31003 25.81L-4.81003 29.31L22.06 2.43997L18.56 -1.06003L-8.31003 25.81ZM22.06 29.31L29.56 21.81L2.68997 -5.06003L-4.81003 2.43997L22.06 29.31ZM29.56 -5.06003L28.685 -5.93503L1.81497 20.935L2.68997 21.81L29.56 -5.06003ZM1.81497 -5.93503L-4.81003 0.68997L22.06 27.56L28.685 20.935L1.81497 -5.93503Z" fill="#C91053" mask="url(#path-3-inside-1_1256_369)"/>
</g>
</g>
<defs>
<clipPath id="clip0_1256_369">
<rect width="20" height="20" rx="2" fill="white"/>
</clipPath>
<clipPath id="clip1_1256_369">
<rect width="15" height="15" fill="white" transform="translate(3 4)"/>
</clipPath>
</defs>
</svg>
