<svg width="46" height="47" viewBox="0 0 46 47" fill="none" xmlns="http://www.w3.org/2000/svg">
<g clip-path="url(#clip0_417_188)">
<path d="M21.566 20.4952C21.8892 20.3901 22.0508 20.0748 22.0508 19.7594V0.788273C22.0508 0.367862 21.6738 0 21.2428 0C15.9641 0 10.9548 1.99697 7.1304 5.57049C6.96883 5.72813 6.91496 5.88578 6.86108 6.096C6.86108 6.30621 6.91496 6.51643 7.07652 6.67407L20.5964 20.285C20.7581 20.4426 20.9735 20.4952 21.1889 20.4952C21.3506 20.5477 21.4583 20.4952 21.566 20.4952Z" fill="#333333"/>
<path d="M20.4348 17.8151L8.854 6.14852C12.0859 3.3633 16.1257 1.7342 20.4348 1.57654V17.8151Z" fill="#C91067"/>
<path d="M21.1888 23.806C21.1888 23.5958 21.1349 23.333 20.9734 23.1753L7.39959 9.56446C7.23802 9.40676 7.0764 9.35425 6.86096 9.35425C6.64552 9.35425 6.43002 9.40676 6.26846 9.56446C2.33636 13.2956 0.12793 18.3406 0.12793 23.7534C0.12793 27.8525 1.42067 31.7938 3.84456 35.1572C4.00615 35.3673 4.22161 35.4725 4.49093 35.4725C4.65252 35.4725 4.81411 35.4199 4.97571 35.3148L20.8656 24.3315C21.0273 24.2263 21.1349 24.0687 21.1888 23.806Z" fill="#333333"/>
<path d="M4.70643 33.6331C2.76731 30.6902 1.7439 27.2744 1.7439 23.7534C1.7439 19.0238 3.57528 14.6094 6.86101 11.2461L19.1421 23.6483L4.70643 33.6331Z" fill="#C91053"/>
<path d="M45.1583 23.1228C45.1045 22.8075 45.0506 22.4922 44.9967 22.1768C44.889 21.4937 44.7274 20.8105 44.5119 20.1799C44.4042 19.9171 44.3503 19.6018 44.2426 19.3391C44.0272 18.761 43.8117 18.1304 43.5424 17.5523C43.4347 17.2896 43.3269 17.0268 43.1653 16.8166C42.896 16.291 42.5728 15.713 42.2496 15.24C42.088 15.0298 41.9803 14.767 41.8187 14.5568C41.4417 14.0313 41.0108 13.5058 40.5798 12.9803C40.4183 12.7701 40.2566 12.5599 40.0412 12.4022C39.6641 11.9818 39.2333 11.5614 38.7485 11.141C38.533 10.9833 38.3714 10.7731 38.1559 10.6155C37.6712 10.2476 37.2403 9.87976 36.7016 9.5119C36.4862 9.3542 36.2707 9.19655 36.0553 9.0389C35.5166 8.67104 34.978 8.35575 34.4393 8.09296C34.17 7.98789 33.9546 7.83024 33.6852 7.7251C33.0389 7.40981 32.3386 7.14703 31.6922 6.8843C31.4229 6.77917 31.1536 6.67409 30.8304 6.62152C30.184 6.4113 29.4839 6.25366 28.7836 6.09601C28.4604 6.04344 28.1372 5.99093 27.814 5.93836C27.0599 5.83323 26.252 5.72815 25.4979 5.72815C25.2285 5.72815 24.9592 5.72815 24.6899 5.72815C24.0435 5.72815 23.5049 6.25366 23.5049 6.8843V25.2774L8.1536 35.8403C7.88429 35.998 7.72272 36.3133 7.66885 36.5761C7.61497 36.8913 7.66885 37.2066 7.88429 37.4169L7.93816 37.522C8.26135 37.9949 8.63841 38.4154 9.06929 38.9409C9.23091 39.1511 9.44635 39.3613 9.60792 39.5189C9.98498 39.9394 10.4159 40.3597 10.9007 40.7802C11.1162 40.9378 11.2777 41.148 11.4932 41.3057C12.0857 41.7787 12.5705 42.1465 13.1091 42.5144C13.3246 42.6195 13.4862 42.7771 13.7016 42.8823L13.8094 42.9348C14.348 43.2501 14.8866 43.5654 15.4253 43.8282C15.6946 43.9333 15.9101 44.0909 16.1794 44.1961C16.718 44.4588 17.3644 44.669 18.0108 44.8792C18.2801 44.9843 18.6033 45.0894 18.8726 45.142C19.5728 45.3522 20.2731 45.5099 20.9194 45.6149C21.2426 45.6675 21.5658 45.72 21.889 45.7726C22.8046 45.8777 23.6665 45.9302 24.5283 45.9302H24.5822C24.9592 45.9302 25.3363 45.9302 25.7133 45.8777C26.6829 45.8252 27.6525 45.72 28.622 45.5099C29.1068 45.4047 29.5915 45.2996 30.1302 45.142C31.6384 44.7216 33.0927 44.1435 34.4393 43.4603C35.7859 42.7246 37.0787 41.8838 38.2637 40.8327C38.9101 40.2547 39.5565 39.6766 40.0951 39.0459C41.1185 37.8899 42.0342 36.6286 42.7883 35.3148C43.5424 34.001 44.081 32.5821 44.5119 31.1106C44.6735 30.5851 44.7813 30.1122 44.889 29.6392C45.1045 28.6933 45.2122 27.7473 45.266 26.8014C45.266 26.4335 45.3199 26.0657 45.3199 25.6978V25.6453C45.3199 24.9096 45.266 24.0161 45.1583 23.1228ZM43.704 26.8014C43.6501 27.6948 43.5424 28.5882 43.3808 29.429C43.2731 29.8494 43.1653 30.3224 43.0576 30.7953C42.6805 32.1617 42.1419 33.4229 41.4417 34.6316C40.7415 35.8403 39.9335 36.9964 38.9639 38.0475C38.4253 38.6256 37.8866 39.2036 37.2403 39.7292C36.163 40.6751 34.978 41.4633 33.7391 42.1465C32.5002 42.8297 31.1536 43.3552 29.7532 43.7231C29.2684 43.8807 28.8375 43.9858 28.3527 44.0384C27.437 44.1961 26.5752 44.3011 25.6595 44.3537C25.3363 44.3537 24.9592 44.4062 24.636 44.4062H24.5822C23.7742 44.4062 22.9663 44.3537 22.1045 44.2486C21.7813 44.1961 21.512 44.1435 21.1888 44.0909C20.5963 43.9858 19.9499 43.8282 19.3035 43.618C19.0342 43.5654 18.7649 43.4603 18.4955 43.3552C17.8492 43.145 17.3105 42.9348 16.7719 42.7246C16.5564 42.6195 16.2871 42.5144 16.0716 42.4093C15.5869 42.1465 15.0482 41.8838 14.5634 41.5685L14.4557 41.5159C14.2941 41.4108 14.0787 41.3057 13.9171 41.2006C13.5401 40.8327 13.0552 40.4649 12.5166 40.0445C12.3012 39.8868 12.1396 39.7292 11.978 39.5715C11.547 39.2037 11.17 38.8357 10.793 38.4154C10.6314 38.2577 10.4698 38.0475 10.3082 37.8898C9.98498 37.522 9.71567 37.1541 9.44635 36.8388L24.7977 26.2233C25.0131 26.0657 25.1208 25.8554 25.1208 25.5927V7.19959C25.2285 7.19959 25.3363 7.19959 25.4979 7.19959C26.252 7.25216 26.9522 7.30467 27.6524 7.40981C27.9756 7.46238 28.245 7.51489 28.5682 7.56746C29.2145 7.67254 29.8609 7.83024 30.4534 8.0404C30.7227 8.14553 30.992 8.1981 31.2614 8.30318C31.9077 8.51339 32.5002 8.77612 33.0927 9.0389C33.3082 9.14404 33.5775 9.24912 33.7929 9.40676C34.2778 9.66955 34.7625 9.93227 35.2473 10.2476C35.4628 10.4053 35.6782 10.5103 35.8398 10.668C36.2707 10.9833 36.7555 11.3512 37.1864 11.6665C37.348 11.8241 37.5634 11.9818 37.7251 12.1394C38.156 12.5073 38.533 12.9277 38.9101 13.2956C39.0716 13.4532 39.2333 13.6635 39.3948 13.8211C39.7719 14.2941 40.149 14.767 40.526 15.2925C40.6876 15.5028 40.7953 15.713 40.9569 15.9232C41.2801 16.3961 41.5494 16.9217 41.8187 17.3946C41.9265 17.6048 42.0342 17.8676 42.1419 18.0778C42.4112 18.6034 42.6267 19.1814 42.7883 19.7069C42.896 19.9697 42.9499 20.2324 43.0576 20.4952C43.2192 21.0732 43.3808 21.7039 43.4885 22.3345C43.5424 22.6498 43.5962 22.9126 43.6501 23.2279C43.7578 24.0687 43.8117 24.857 43.8117 25.6453V25.6978C43.7578 26.1182 43.704 26.4335 43.704 26.8014Z" fill="#333333"/>
<path d="M36.8224 1.76241L38.5849 0L39.0884 0.503444L37.3259 2.26585L39.0884 4.02826L38.5849 4.53171L36.8224 2.7693L35.0599 4.53171L34.5564 4.02826L36.3189 2.26585L34.5564 0.503444L35.0599 0L36.8224 1.76241Z" fill="#ACACAC"/>
<path d="M42.4876 10.338C43.5044 10.338 44.3287 9.51377 44.3287 8.49701C44.3287 7.48025 43.5044 6.65601 42.4876 6.65601C41.4708 6.65601 40.6465 7.48025 40.6465 8.49701C40.6465 9.51377 41.4708 10.338 42.4876 10.338Z" stroke="#ACACAC" stroke-width="1.5"/>
</g>
<defs>
<clipPath id="clip0_417_188">
<rect width="45.32" height="46.45" fill="white"/>
</clipPath>
</defs>
</svg>
