<svg width="46" height="51" viewBox="0 0 46 51" fill="none" xmlns="http://www.w3.org/2000/svg">
<g clip-path="url(#clip0_417_210)">
<path d="M15.5896 36.5901H22.7461C24.5677 36.5901 25.999 35.1779 25.999 33.3807C25.999 31.5835 24.5677 30.1713 22.7461 30.1713H18.8426C17.0209 30.1713 15.5896 28.7593 15.5896 26.962C15.5896 25.1648 17.0209 23.7527 18.8426 23.7527H24.6978" stroke="#C91053" stroke-width="2.5" stroke-miterlimit="10" stroke-linecap="round" stroke-linejoin="round"/>
<path d="M20.7942 19.9014V23.7526" stroke="#C91053" stroke-width="2.5" stroke-miterlimit="10" stroke-linecap="round" stroke-linejoin="round"/>
<path d="M20.7942 36.59V39.1574" stroke="#C91053" stroke-width="2.5" stroke-miterlimit="10" stroke-linecap="round" stroke-linejoin="round"/>
<path d="M32.3747 49.4273H9.08365C4.78979 49.4273 1.27661 46.0897 1.27661 41.9817V41.5965C1.27661 33.3806 4.00908 25.2931 9.08365 18.6177L15.9799 9.63147H24.0472L30.423 16.6921C36.7987 23.7526 40.1818 32.6104 40.1818 41.9817C40.3119 46.0897 36.7987 49.4273 32.3747 49.4273Z" stroke="#333333" stroke-width="2.5" stroke-miterlimit="10" stroke-linecap="round" stroke-linejoin="round"/>
<path d="M23.787 9.75985L24.3075 9.11799C25.7388 7.06398 26.5195 4.75325 26.5195 2.31415C26.5195 1.15878 25.2184 0.388537 24.0473 1.03041L20.5341 3.08438C20.0137 3.34114 19.363 3.34114 18.8426 3.08438L15.3294 1.03041C14.2885 0.388537 12.8572 1.15878 12.8572 2.31415C12.8572 4.88162 13.768 7.44908 15.3294 9.50309L15.4595 9.63144" stroke="#333333" stroke-width="2.5" stroke-miterlimit="10" stroke-linecap="round" stroke-linejoin="round"/>
<path d="M36.2395 1.98569L38.2255 0L38.7928 0.567224L36.8068 2.55291L38.7928 4.5386L38.2255 5.10582L36.2395 3.12014L34.2536 5.10582L33.6863 4.5386L35.6723 2.55291L33.6863 0.567224L34.2536 0L36.2395 1.98569Z" fill="#ACACAC"/>
<path d="M42.6226 11.6476C43.7683 11.6476 44.6971 10.719 44.6971 9.57339C44.6971 8.42781 43.7683 7.49915 42.6226 7.49915C41.4769 7.49915 40.5481 8.42781 40.5481 9.57339C40.5481 10.719 41.4769 11.6476 42.6226 11.6476Z" stroke="#ACACAC" stroke-width="1.5"/>
</g>
<defs>
<clipPath id="clip0_417_210">
<rect width="45.32" height="50.42" fill="white"/>
</clipPath>
</defs>
</svg>
